<svg xmlns="http://www.w3.org/2000/svg" width="47.1052" height="49.4578" viewBox="0 0 47.1052 49.4578"><title>globe</title><g id="Layer_2" data-name="Layer 2"><g id="Layer_4" data-name="Layer 4"><path d="M23.5526,0C10.5665,0,0,11.0942,0,24.729S10.5665,49.4578,23.5526,49.4578,47.1052,38.3633,47.1052,24.729,36.5385,0,23.5526,0ZM39.04,12.4905h-6.46a35.27,35.27,0,0,0-1.79-6.2676A19.2784,19.2784,0,0,1,39.04,12.4905ZM24.1,4.8921c.7535,0,2.3624,2.6069,3.5171,7.5984H20.583C21.7374,7.499,23.3459,4.8921,24.1,4.8921Zm-17.861,27.86a20.789,20.789,0,0,1,0-15.1963h8.6172a71.5007,71.5007,0,0,0,0,15.1963Zm2.9184,5.0657h6.4619a35.2965,35.2965,0,0,0,1.79,6.27A19.3282,19.3282,0,0,1,9.1575,37.8179Zm6.4619-25.3274H9.1575A19.2993,19.2993,0,0,1,17.41,6.2229,35.2609,35.2609,0,0,0,15.6194,12.4905ZM24.1,45.416c-.7542,0-2.3627-2.6047-3.5171-7.5981h7.0342C26.4625,42.8113,24.8536,45.416,24.1,45.416Zm4.3676-12.6638H19.7324a63.3443,63.3443,0,0,1,0-15.1963h8.7353A63.3443,63.3443,0,0,1,28.4677,32.7522ZM30.79,44.0879a35.3053,35.3053,0,0,0,1.79-6.27h6.46A19.3073,19.3073,0,0,1,30.79,44.0879Zm2.5537-11.3357a71.56,71.56,0,0,0,0-15.1963h8.6169a20.788,20.788,0,0,1,0,15.1963Z" fill="#fff"/></g></g></svg>