<svg id="Layer_1" data-name="Layer 1" xmlns="http://www.w3.org/2000/svg" viewBox="0 0 158.73 65.23"><defs><style>.cls-1{fill:#fff;}</style></defs><title>Untitled-1</title><path class="cls-1" d="M28.5,23.8V11L23,19.38h-.12l-5.46-8.29V23.8H13.16V4.2h4.65L23,12.49,28.11,4.2h4.65V23.8Z"/><path class="cls-1" d="M37.46,23.8V4.2H52.22V8H41.72v4H51v3.84H41.72V20H52.36V23.8Z"/><path class="cls-1" d="M70.81,23.8,69,19.4H60.73l-1.79,4.4h-4.4l8.4-19.74h4l8.4,19.74ZM64.87,9.24l-2.6,6.36h5.21Z"/><path class="cls-1" d="M92,20.59a5.33,5.33,0,0,1-1.47,1.91,6.82,6.82,0,0,1-2.26,1.17,9.89,9.89,0,0,1-2.91.41,13.11,13.11,0,0,1-4.4-.77A11.61,11.61,0,0,1,77,20.94l2.55-3.05a12.94,12.94,0,0,0,2.76,1.74,7.34,7.34,0,0,0,3.09.64,3.73,3.73,0,0,0,2.09-.49,1.54,1.54,0,0,0,.74-1.36v-.05a1.72,1.72,0,0,0-.15-.74,1.61,1.61,0,0,0-.59-.61,6.69,6.69,0,0,0-1.21-.56,20.74,20.74,0,0,0-2-.58,25.51,25.51,0,0,1-2.69-.82,7.24,7.24,0,0,1-2-1.1,4.56,4.56,0,0,1-1.31-1.64,5.68,5.68,0,0,1-.46-2.44V9.83a5.72,5.72,0,0,1,.5-2.42,5.47,5.47,0,0,1,1.41-1.87,6.29,6.29,0,0,1,2.16-1.2,8.59,8.59,0,0,1,2.76-.42,11.92,11.92,0,0,1,4,.64,11.53,11.53,0,0,1,3.32,1.85L89.65,9.66a13.74,13.74,0,0,0-2.57-1.41,6.5,6.5,0,0,0-2.52-.52,3,3,0,0,0-1.89.49A1.49,1.49,0,0,0,82,9.44v.05a1.78,1.78,0,0,0,.18.83,1.68,1.68,0,0,0,.66.63,6.18,6.18,0,0,0,1.3.53c.56.17,1.25.36,2.1.59a19.58,19.58,0,0,1,2.65.88,7.29,7.29,0,0,1,2,1.18,4.31,4.31,0,0,1,1.21,1.61A5.45,5.45,0,0,1,92.51,18V18A6.08,6.08,0,0,1,92,20.59Z"/><path class="cls-1" d="M96.26,23.8V4.2h4.31V19.91h9.77V23.8Z"/><path class="cls-1" d="M113.59,23.8V4.2h14.76V8h-10.5v4h9.24v3.84h-9.24V20h10.64V23.8Z"/><path class="cls-1" d="M146,20.59a5.33,5.33,0,0,1-1.47,1.91,6.73,6.73,0,0,1-2.26,1.17,9.84,9.84,0,0,1-2.91.41,13,13,0,0,1-4.39-.77A11.42,11.42,0,0,1,131,20.94l2.54-3.05a12.94,12.94,0,0,0,2.76,1.74,7.38,7.38,0,0,0,3.1.64,3.72,3.72,0,0,0,2.08-.49,1.52,1.52,0,0,0,.74-1.36v-.05a1.72,1.72,0,0,0-.15-.74,1.54,1.54,0,0,0-.59-.61,6.69,6.69,0,0,0-1.21-.56c-.51-.18-1.18-.38-2-.58a25,25,0,0,1-2.7-.82,7.24,7.24,0,0,1-2.05-1.1,4.56,4.56,0,0,1-1.31-1.64,5.84,5.84,0,0,1-.46-2.44V9.83a5.72,5.72,0,0,1,.5-2.42,5.6,5.6,0,0,1,1.41-1.87,6.29,6.29,0,0,1,2.16-1.2,8.64,8.64,0,0,1,2.76-.42,12,12,0,0,1,4,.64,11.48,11.48,0,0,1,3.31,1.85l-2.24,3.25a13.44,13.44,0,0,0-2.57-1.41,6.5,6.5,0,0,0-2.52-.52,3,3,0,0,0-1.89.49,1.49,1.49,0,0,0-.63,1.22v.05a1.78,1.78,0,0,0,.18.83,1.68,1.68,0,0,0,.66.63,6.07,6.07,0,0,0,1.31.53c.55.17,1.24.36,2.09.59a19.58,19.58,0,0,1,2.65.88,7.51,7.51,0,0,1,2,1.18,4.39,4.39,0,0,1,1.2,1.61,5.45,5.45,0,0,1,.41,2.21V18A6.08,6.08,0,0,1,146,20.59Z"/><path class="cls-1" d="M24.5,34.29V48.8h-4V34.29H15V30.6H30v3.69Z"/><path class="cls-1" d="M44.16,48.8,40.26,43H37.11V48.8h-4V30.6h8.32a7.41,7.41,0,0,1,5.06,1.59,5.57,5.57,0,0,1,1.8,4.42v0a5.71,5.71,0,0,1-1.08,3.6,6.21,6.21,0,0,1-2.82,2l4.45,6.5Zm.08-12a2.33,2.33,0,0,0-.84-2,3.67,3.67,0,0,0-2.31-.65h-4v5.23h4.06a3.28,3.28,0,0,0,2.27-.7,2.38,2.38,0,0,0,.8-1.87Z"/><path class="cls-1" d="M65.45,48.8l-1.66-4.08h-7.7L54.43,48.8H50.35l7.8-18.33h3.69l7.8,18.33ZM59.94,35.28l-2.42,5.9h4.84Z"/><path class="cls-1" d="M87,47.21a8.18,8.18,0,0,1-1.65,1,8.51,8.51,0,0,1-2,.65,11.68,11.68,0,0,1-2.4.22,9.3,9.3,0,0,1-3.71-.73,8.86,8.86,0,0,1-3-2,9.12,9.12,0,0,1-2-3,9.59,9.59,0,0,1-.7-3.67v0a9.44,9.44,0,0,1,2.65-6.64,9,9,0,0,1,3-2,9.82,9.82,0,0,1,3.85-.74,11.94,11.94,0,0,1,2.33.21,10,10,0,0,1,1.91.57A8.34,8.34,0,0,1,87,32a10.74,10.74,0,0,1,1.36,1.15L85.76,36a9.63,9.63,0,0,0-2.17-1.5A5.49,5.49,0,0,0,81.1,34a5,5,0,0,0-3.79,1.66,5.72,5.72,0,0,0-1.09,1.81,6.17,6.17,0,0,0-.39,2.2v.05a6.23,6.23,0,0,0,.39,2.21,5.82,5.82,0,0,0,1.08,1.82,4.94,4.94,0,0,0,3.8,1.69,5.6,5.6,0,0,0,2.64-.57,10.14,10.14,0,0,0,2.15-1.56l2.55,2.57A13,13,0,0,1,87,47.21Z"/><path class="cls-1" d="M103.39,48.8l-5.65-7.75-2.1,2.19V48.8h-4V30.6h4v8l7.38-8h4.84l-7.41,7.72L108.2,48.8Z"/><path class="cls-1" d="M110.61,48.8V30.6h13.71v3.56h-9.75v3.69h8.58v3.57h-8.58v3.82h9.88V48.8Z"/><path class="cls-1" d="M139.08,48.8,135.18,43H132V48.8h-4V30.6h8.32a7.4,7.4,0,0,1,5.06,1.59,5.55,5.55,0,0,1,1.81,4.42v0a5.71,5.71,0,0,1-1.08,3.6,6.21,6.21,0,0,1-2.82,2l4.44,6.5Zm.08-12a2.32,2.32,0,0,0-.83-2,3.69,3.69,0,0,0-2.31-.65h-4v5.23h4.05a3.33,3.33,0,0,0,2.28-.7,2.37,2.37,0,0,0,.79-1.87Z"/></svg>