<?xml version="1.0" encoding="utf-8"?>
<!-- Generator: Adobe Illustrator 23.1.1, SVG Export Plug-In . SVG Version: 6.00 Build 0)  -->
<svg version="1.1" id="Layer_1" xmlns="http://www.w3.org/2000/svg" xmlns:xlink="http://www.w3.org/1999/xlink" x="0px" y="0px"
	 viewBox="0 0 133.4 45.2" style="enable-background:new 0 0 133.4 45.2;" xml:space="preserve">
<style type="text/css">
	.st0{fill:#FFFFFF;}
</style>
<title>Untitled-1</title>
<g>
	<path class="st0" d="M15.4,19.9V7.1l-5.5,8.4H9.8L4.3,7.2v12.7H0V0.3h4.6l5.2,8.3l5.1-8.3h4.7v19.6C19.6,19.9,15.4,19.9,15.4,19.9z
		"/>
	<path class="st0" d="M24.4,19.9V0.3h14.8v3.8H28.6v4h9.3V12h-9.3v4.2h10.6V20L24.4,19.9L24.4,19.9z"/>
	<path class="st0" d="M57.7,19.9l-1.8-4.4h-8.3l-1.8,4.4h-4.4l8.4-19.7h4l8.4,19.7H57.7z M51.8,5.4l-2.6,6.4h5.2L51.8,5.4z"/>
	<path class="st0" d="M78.9,16.7c-0.3,0.7-0.8,1.4-1.5,1.9s-1.4,0.9-2.3,1.2c-0.9,0.3-1.9,0.4-2.9,0.4c-1.5,0-3-0.3-4.4-0.8
		c-1.5-0.5-2.8-1.3-4-2.4l2.6-3c0.8,0.7,1.8,1.3,2.8,1.7c1,0.4,2,0.7,3.1,0.6c0.7,0,1.5-0.1,2.1-0.5c0.5-0.3,0.8-0.8,0.7-1.4l0,0
		c0-0.3,0-0.5-0.2-0.7c-0.1-0.3-0.3-0.5-0.6-0.6c-0.4-0.2-0.8-0.4-1.2-0.6c-0.7-0.2-1.3-0.4-2-0.6c-0.9-0.2-1.8-0.5-2.7-0.8
		c-0.7-0.3-1.4-0.6-2-1.1c-0.6-0.4-1-1-1.3-1.6c-0.3-0.8-0.5-1.6-0.5-2.4V5.9c0-0.8,0.2-1.7,0.5-2.4s0.8-1.4,1.4-1.9
		s1.4-0.9,2.2-1.2C69.6,0.1,70.5,0,71.5,0c1.4,0,2.7,0.2,4,0.6c1.2,0.4,2.3,1.1,3.3,1.8l-2.3,3.2c-0.8-0.6-1.7-1-2.6-1.4
		c-0.8-0.3-1.7-0.5-2.5-0.5c-0.7-0.1-1.3,0.1-1.9,0.5c-0.4,0.3-0.7,0.7-0.7,1.2v0.1c0,0.3,0.1,0.6,0.2,0.8c0.2,0.3,0.4,0.5,0.7,0.6
		c0.4,0.2,0.8,0.4,1.3,0.5c0.6,0.2,1.2,0.4,2.1,0.6s1.8,0.5,2.7,0.9c0.7,0.3,1.4,0.7,2,1.2c0.5,0.4,0.9,1,1.2,1.6
		c0.3,0.7,0.4,1.5,0.4,2.3l0,0C79.4,15,79.3,15.9,78.9,16.7z"/>
	<path class="st0" d="M83.2,19.9V0.3h4.3V16h9.8v3.9H83.2z"/>
	<path class="st0" d="M100.5,19.9V0.3h14.8v3.8h-10.5v4h9.2V12h-9.2v4.2h10.6V20L100.5,19.9L100.5,19.9z"/>
	<path class="st0" d="M132.9,16.7c-0.3,0.7-0.8,1.4-1.5,1.9s-1.4,0.9-2.3,1.2c-0.9,0.3-1.9,0.4-2.9,0.4c-1.5,0-3-0.3-4.4-0.8
		c-1.5-0.5-2.8-1.3-4-2.4l2.5-3c0.8,0.7,1.8,1.3,2.8,1.7c1,0.4,2,0.7,3.1,0.6c0.7,0,1.4-0.1,2.1-0.5c0.5-0.3,0.8-0.8,0.7-1.4l0,0
		c0-0.3,0-0.5-0.1-0.7c-0.1-0.3-0.3-0.5-0.6-0.6c-0.4-0.2-0.8-0.4-1.2-0.6c-0.5-0.2-1.2-0.4-2-0.6c-0.9-0.2-1.8-0.5-2.7-0.8
		c-0.7-0.3-1.4-0.6-2.1-1.1c-0.6-0.4-1-1-1.3-1.6c-0.3-0.8-0.5-1.6-0.5-2.4V5.9c0-0.8,0.2-1.7,0.5-2.4s0.8-1.4,1.4-1.9
		c0.6-0.5,1.4-0.9,2.2-1.2c0.9-0.3,1.8-0.4,2.8-0.4c1.4,0,2.7,0.2,4,0.6c1.2,0.4,2.3,1.1,3.3,1.8l-2.2,3.2c-0.8-0.6-1.7-1-2.6-1.4
		c-0.8-0.3-1.7-0.5-2.5-0.5c-0.7-0.1-1.3,0.1-1.9,0.5c-0.4,0.3-0.6,0.7-0.6,1.2v0.1c0,0.3,0.1,0.6,0.2,0.8c0.2,0.3,0.4,0.5,0.7,0.6
		c0.4,0.2,0.9,0.4,1.3,0.5c0.6,0.2,1.2,0.4,2.1,0.6c0.9,0.2,1.8,0.5,2.6,0.9c0.7,0.3,1.4,0.7,2,1.2c0.5,0.4,0.9,1,1.2,1.6
		c0.3,0.7,0.4,1.5,0.4,2.2l0,0C133.5,15,133.3,15.9,132.9,16.7z"/>
	<path class="st0" d="M11.4,30.4v14.5h-4V30.4H1.9v-3.7h15v3.7H11.4z"/>
	<path class="st0" d="M31.1,44.9l-3.9-5.8h-3.1v5.8h-4V26.7h8.3c1.8-0.1,3.6,0.5,5.1,1.6c1.2,1.1,1.9,2.8,1.8,4.4l0,0
		c0.1,1.3-0.3,2.6-1.1,3.6c-0.7,0.9-1.7,1.6-2.8,2l4.5,6.5L31.1,44.9z M31.1,32.9c0.1-0.8-0.2-1.5-0.8-2c-0.7-0.5-1.5-0.7-2.3-0.7
		h-4v5.2h4.1c0.8,0.1,1.6-0.2,2.3-0.7C30.9,34.3,31.1,33.6,31.1,32.9L31.1,32.9z"/>
	<path class="st0" d="M52.3,44.9l-1.7-4.1h-7.7l-1.7,4.1h-4.1l7.8-18.3h3.7l7.8,18.3H52.3z M46.8,31.4l-2.4,5.9h4.8L46.8,31.4z"/>
	<path class="st0" d="M73.9,43.3c-0.5,0.4-1.1,0.7-1.7,1s-1.3,0.5-2,0.7c-0.8,0.2-1.6,0.2-2.4,0.2c-1.3,0-2.5-0.2-3.7-0.7
		c-1.1-0.5-2.1-1.1-3-2s-1.5-1.9-2-3c-0.5-1.2-0.7-2.4-0.7-3.7l0,0c0-2.5,0.9-4.9,2.7-6.6c0.9-0.9,1.9-1.5,3-2
		c1.2-0.5,2.5-0.8,3.8-0.7c0.8,0,1.6,0.1,2.3,0.2c0.7,0.1,1.3,0.3,1.9,0.6c0.6,0.2,1.2,0.5,1.7,0.9c0.5,0.3,0.9,0.7,1.4,1.2
		l-2.6,2.8c-0.7-0.6-1.4-1.1-2.2-1.5c-0.8-0.4-1.6-0.5-2.5-0.5c-1.4,0-2.8,0.6-3.8,1.7c-0.5,0.5-0.8,1.1-1.1,1.8
		c-0.3,0.7-0.4,1.4-0.4,2.2l0,0c0,0.8,0.1,1.5,0.4,2.2c0.2,0.7,0.6,1.3,1.1,1.8c1,1.1,2.3,1.7,3.8,1.7c0.9,0,1.8-0.2,2.6-0.6
		c0.8-0.4,1.5-0.9,2.2-1.6l2.6,2.6C74.9,42.5,74.4,42.9,73.9,43.3z"/>
	<path class="st0" d="M90.3,44.9l-5.7-7.8l-2.1,2.2v5.6h-4V26.7h4v8l7.4-8h4.8l-7.4,7.7l7.8,10.5H90.3z"/>
	<path class="st0" d="M97.5,44.9V26.7h13.7v3.6h-9.8V34h8.6v3.6h-8.6v3.8h9.9V45L97.5,44.9L97.5,44.9z"/>
	<path class="st0" d="M126,44.9l-3.9-5.8h-3.2v5.8h-4V26.7h8.3c1.8-0.1,3.6,0.5,5.1,1.6c1.2,1.1,1.9,2.7,1.8,4.4l0,0
		c0.1,1.3-0.3,2.6-1.1,3.6c-0.7,0.9-1.7,1.6-2.8,2l4.4,6.5L126,44.9z M126.1,32.9c0.1-0.8-0.2-1.5-0.8-2c-0.7-0.5-1.5-0.7-2.3-0.7
		h-4v5.2h4.1c0.8,0.1,1.6-0.2,2.3-0.7C125.8,34.3,126.1,33.6,126.1,32.9L126.1,32.9z"/>
</g>
</svg>
